# Blender v2.79 (sub 0) OBJ File: 'tfx80.blend'
# www.blender.org
mtllib colored_cube.mtl
o Cube
v 1.000000 -1.000000 -1.000000
v 1.000000 -1.000000 1.000000
v -1.000000 -1.000000 1.000000
v -1.000000 -1.000000 -1.000000
v 1.000000 1.000000 -0.999999
v 0.999999 1.000000 1.000001
v -1.000000 1.000000 1.000000
v -1.000000 1.000000 -1.000000
v 0.900000 -1.000000 -0.900000
v 0.900000 -1.000000 0.900000
v -0.900000 -1.000000 0.900000
v -0.900000 -1.000000 -0.900000
v 0.900000 1.000000 -0.899999
v -0.900000 1.000000 -0.900000
v -0.900000 1.000000 0.900000
v 0.899999 1.000000 0.900001
v 1.000000 -0.900000 -0.900000
v 1.000000 0.900000 -0.899999
v 0.999999 0.900000 0.900001
v 1.000000 -0.900000 0.900000
v 0.900000 -0.900000 1.000000
v 0.899999 0.900000 1.000001
v -0.900000 0.900000 1.000000
v -0.900000 -0.900000 1.000000
v -1.000000 -0.900000 0.900000
v -1.000000 0.900000 0.900000
v -1.000000 0.900000 -0.900000
v -1.000000 -0.900000 -0.900000
v 0.900000 0.900000 -1.000000
v 0.900000 -0.900000 -1.000000
v -0.900000 -0.900000 -1.000000
v -0.900000 0.900000 -1.000000
vn 0.0000 -1.0000 0.0000
vn 0.0000 1.0000 0.0000
vn 1.0000 0.0000 0.0000
vn -1.0000 -0.0000 -0.0000
vn -0.0000 -0.0000 1.0000
vn 0.0000 0.0000 -1.0000
usemtl Material
s off
f 9//1 10//1 11//1 12//1
f 13//2 14//2 15//2 16//2
usemtl Material.003
f 17//3 18//3 19//3 20//3
f 25//4 26//4 27//4 28//4
usemtl Material.005
f 21//5 22//5 23//5 24//5
f 29//6 30//6 31//6 32//6
usemtl Material.006
f 1//1 2//1 10//1 9//1
f 2//1 3//1 11//1 10//1
f 3//1 4//1 12//1 11//1
f 4//1 1//1 9//1 12//1
f 5//2 8//2 14//2 13//2
f 8//2 7//2 15//2 14//2
f 7//2 6//2 16//2 15//2
f 6//2 5//2 13//2 16//2
f 1//3 5//3 18//3 17//3
f 5//3 6//3 19//3 18//3
f 6//3 2//3 20//3 19//3
f 2//3 1//3 17//3 20//3
f 2//5 6//5 22//5 21//5
f 6//5 7//5 23//5 22//5
f 7//5 3//5 24//5 23//5
f 3//5 2//5 21//5 24//5
f 3//4 7//4 26//4 25//4
f 7//4 8//4 27//4 26//4
f 8//4 4//4 28//4 27//4
f 4//4 3//4 25//4 28//4
f 5//6 1//6 30//6 29//6
f 1//6 4//6 31//6 30//6
f 4//6 8//6 32//6 31//6
f 8//6 5//6 29//6 32//6
