mtllib cube.mtl
v -0.1085185 -0.06664395 -0.0256384
v 0.01844177 -0.07396817 -0.1051837
v 0.02939063 0.07558584 -0.1014789
v -0.09756963 0.08291006 -0.02193367
v -0.02939062 -0.07558584 0.1014789
v -0.01844177 0.07396817 0.1051837
v 0.1085185 0.06664395 0.0256384
v 0.09756964 -0.08291006 0.02193367
vn -0.5275191 0.05961274 -0.8474491
vn 0.5275191 -0.05961274 0.8474491
vn -0.07299241 -0.9970266 -0.02469837
vn 0.07299241 0.9970266 0.02469837
vn -0.8464016 0.04882848 0.5303019
vn 0.8464016 -0.04882848 -0.5303019
vt -0.09519976 0.09829672
vt -0.08790713 0.1114046
vt -0.1010151 0.1186973
vt -0.1083077 0.1055893
vt 0.09519976 0.09829672
vt 0.1083077 0.1055893
vt 0.1010151 0.1186973
vt 0.08790713 0.1114046
vt -0.05752439 0.02924988
vt -0.0427958 0.0320904
vt -0.04563631 0.04681899
vt -0.06036491 0.04397848
vt 0.05752439 0.02924988
vt 0.06036491 0.04397848
vt 0.04563632 0.04681899
vt 0.0427958 0.0320904
vt 0.09103416 0.1070706
vt 0.09594705 0.1212432
vt 0.08177441 0.1261561
vt 0.07686153 0.1119835
vt -0.09103417 0.1070706
vt -0.07686152 0.1119835
vt -0.08177441 0.1261561
vt -0.09594705 0.1212432
o group1829569916
g mesh1829569916
usemtl mat12
f 4/4/1 3/3/1 2/2/1 1/1/1
f 2/12/3 8/11/3 5/10/3 1/9/3
usemtl mat8
f 8/8/2 7/7/2 6/6/2 5/5/2
f 3/24/6 7/23/6 8/22/6 2/21/6
usemtl mat2
f 6/16/4 7/15/4 3/14/4 4/13/4
usemtl mat10
f 5/20/5 6/19/5 4/18/5 1/17/5
